<svg width="29" height="29" viewBox="0 0 29 29" fill="none" xmlns="http://www.w3.org/2000/svg">
<g id="Settings_outline_24px">
<g id="icon">
<path d="M14.0122 4C13.0884 4 12.3124 4.69484 12.2107 5.61307L12.098 6.63136C11.7237 6.75759 11.3601 6.90419 11.0105 7.07801L10.2088 6.43815C9.48756 5.86253 8.449 5.92064 7.79651 6.57314L6.57314 7.79651C5.92064 8.449 5.86253 9.48756 6.43815 10.2088L7.07801 11.0105C6.90419 11.3601 6.75759 11.7237 6.63136 12.098L5.61307 12.2107C4.69484 12.3124 4 13.0884 4 14.0122V15.7378C4 16.6616 4.69484 17.4376 5.61307 17.5393L6.63136 17.652C6.75759 18.0263 6.90419 18.3899 7.07801 18.7395L6.43815 19.5412C5.86253 20.2624 5.92064 21.301 6.57314 21.9535L7.79651 23.1769C8.449 23.8294 9.48756 23.8875 10.2088 23.3119L11.0105 22.672C11.3601 22.8458 11.7237 22.9924 12.098 23.1186L12.2107 24.1369C12.3124 25.0552 13.0884 25.75 14.0122 25.75H15.7378C16.6616 25.75 17.4376 25.0552 17.5393 24.1369L17.652 23.1186C18.0263 22.9924 18.3899 22.8458 18.7395 22.672L19.5412 23.3119C20.2624 23.8875 21.301 23.8294 21.9535 23.1769L23.1769 21.9535C23.8294 21.301 23.8875 20.2624 23.3118 19.5412L22.672 18.7395C22.8458 18.3899 22.9924 18.0263 23.1186 17.652L24.1369 17.5393C25.0552 17.4376 25.75 16.6616 25.75 15.7378V14.0122C25.75 13.0884 25.0552 12.3124 24.1369 12.2107L23.1186 12.098C22.9924 11.7237 22.8458 11.3601 22.672 11.0105L23.3119 10.2088C23.8875 9.48756 23.8294 8.449 23.1769 7.79651L21.9535 6.57314C21.301 5.92064 20.2624 5.86253 19.5412 6.43815L18.7395 7.07801C18.3899 6.90419 18.0263 6.75759 17.652 6.63136L17.5393 5.61307C17.4376 4.69484 16.6616 4 15.7378 4H14.0122Z" stroke="#D6D6D6" stroke-width="1.5" stroke-linejoin="round"/>
<path d="M14.875 11.25C16.877 11.25 18.5 12.8729 18.5 14.875C18.5 16.877 16.877 18.5 14.875 18.5C12.873 18.5 11.25 16.877 11.25 14.875C11.25 12.8729 12.873 11.25 14.875 11.25Z" stroke="#D6D6D6" stroke-width="1.5" stroke-linejoin="round"/>
</g>
</g>
</svg>
